<?xml version="1.0" encoding="utf-8"?>
<!-- Generator: Adobe Illustrator 24.0.1, SVG Export Plug-In . SVG Version: 6.00 Build 0)  -->
<svg version="1.1" id="Ebene_1" xmlns="http://www.w3.org/2000/svg" xmlns:xlink="http://www.w3.org/1999/xlink" x="0px" y="0px"
	 viewBox="0 0 113.39 82.2" style="enable-background:new 0 0 113.39 82.2;" xml:space="preserve">
<style type="text/css">
	.st0{fill:#282828;}
</style>
<g>
	<g>
		<path class="st0" d="M3.21,78.87c-0.65,0-1.06-0.16-1.5-0.57v2.75H0.8v-8.2h0.89l-0.02,0.61c0.42-0.48,0.89-0.69,1.54-0.69
			c1.3,0,2.52,1.03,2.52,3.03C5.74,77.8,4.51,78.87,3.21,78.87z M3.1,73.62c-0.55,0-0.91,0.17-1.38,0.67v3.08
			c0.41,0.47,0.81,0.66,1.38,0.66c0.93,0,1.72-0.74,1.72-2.24C4.82,74.34,4.02,73.62,3.1,73.62z"/>
		<path class="st0" d="M10.83,78.79l0.03-0.63c-0.45,0.48-1.36,0.72-1.94,0.72c-1.08,0-1.91-0.61-1.91-1.64
			c0-1.43,1.62-1.77,3.1-2.06l0.71-0.14c-0.02-0.95-0.35-1.47-1.27-1.47c-0.61,0-1.26,0.27-1.62,0.8l-0.67-0.56
			c0.58-0.71,1.42-1.06,2.25-1.06c1.48,0,2.21,0.84,2.21,2.17v3.87H10.83z M10.46,75.86c-1.05,0.23-2.48,0.5-2.48,1.31
			c0,0.64,0.42,0.91,1.11,0.91c0.54,0,1.39-0.27,1.74-0.76v-1.54L10.46,75.86z"/>
		<path class="st0" d="M16.47,74.1c-0.24-0.31-0.58-0.51-1-0.51c-0.38,0-0.68,0.22-0.9,0.53v4.68h-0.93v-5.94h0.9l-0.01,0.47
			c0.27-0.38,0.67-0.55,1.11-0.55c0.66,0,1.08,0.3,1.51,0.82L16.47,74.1z"/>
		<path class="st0" d="M20.77,78.87c-1.32,0-1.87-0.8-1.87-2.15v-3.06h-0.71v-0.81h0.71c0-0.41,0.02-0.83,0.02-1.24l0.89-0.41v1.66
			h1.84v0.81h-1.84v3.12c0,0.82,0.22,1.27,0.96,1.27c0.25,0,0.48-0.11,0.68-0.29l0.55,0.63C21.66,78.69,21.25,78.87,20.77,78.87z"/>
		<path class="st0" d="M28.39,78.86c-1.47,0-2.62-1.06-2.62-3.04c0-1.99,1.14-3.05,2.62-3.05c1.48,0,2.63,1.06,2.63,3.05
			C31.02,77.8,29.88,78.86,28.39,78.86z M28.39,73.63c-0.96,0-1.7,0.72-1.7,2.19c0,1.5,0.74,2.18,1.7,2.18
			c0.97,0,1.71-0.68,1.71-2.18C30.11,74.35,29.35,73.63,28.39,73.63z"/>
		<path class="st0" d="M35.16,71.79c-0.17-0.16-0.39-0.26-0.61-0.26c-0.65,0-0.83,0.49-0.83,0.96v0.37h1.23v0.82h-1.22v5.11h-0.92
			v-5.11H32.1v-0.82h0.71v-0.3c0-0.98,0.51-1.83,1.75-1.83c0.46,0,0.82,0.17,1.14,0.46L35.16,71.79z"/>
		<path class="st0" d="M45.78,79.25c-3.06,0-5.32-1.92-6.14-2.9l2.71-2.17c0.98,1.05,2.28,1.78,3.51,1.78
			c1.42,0,2.14-0.73,2.14-1.62c0-2.26-7.71-2.12-7.71-7.07c0-2.81,2.4-4.72,5.75-4.72c3.08,0,5.25,2.28,5.25,2.28l-2.42,2.19
			c0,0-1.3-1.14-2.83-1.14c-1.39,0-1.99,0.57-1.99,1.37c0,2.21,7.64,2.01,7.64,7.05C51.71,77.65,48.65,79.25,45.78,79.25z"/>
		<path class="st0" d="M59.16,78.95c-3.01,0-5.57-2.14-5.57-6.04c0-3.92,2.53-6.16,5.57-6.16c1.82,0,3.03,0.55,4.47,2.19l-2.37,1.8
			c-0.73-0.91-1.32-1.09-2.05-1.09c-1.09,0-2.26,0.93-2.26,3.26c0,2.21,1.14,3.12,2.26,3.12c0.66,0,1.28-0.14,2.05-1.09l2.4,1.66
			C62.3,78.36,60.96,78.95,59.16,78.95z"/>
		<path class="st0" d="M72.34,78.79v-6.82c0-1.09-0.14-2.33-1.62-2.33c-0.68,0-1.37,0.34-1.73,0.87v8.28h-3.4V62.85h3.4v4.95
			c0.48-0.48,1.51-1.05,2.78-1.05c3.29,0,3.97,2.71,3.97,5.27v6.77H72.34z"/>
		<path class="st0" d="M81.35,73.59c0.04,1.57,1.19,2.65,2.26,2.65c0.82,0,1.37-0.27,1.98-1.07l2.78,1.3
			c-1.28,1.82-2.76,2.49-4.79,2.49c-3.19,0-5.56-2.17-5.56-6.04c0-3.9,2.46-6.16,5.41-6.16c3.1,0,5.36,2.21,5.36,6.07v0.78H81.35z
			 M81.44,71.29h3.95c-0.2-1.32-0.94-2.05-1.96-2.05C82.46,69.23,81.67,70.08,81.44,71.29z"/>
		<path class="st0" d="M93.94,73.59c0.04,1.57,1.19,2.65,2.26,2.65c0.82,0,1.37-0.27,1.98-1.07l2.78,1.3
			c-1.28,1.82-2.76,2.49-4.79,2.49c-3.19,0-5.56-2.17-5.56-6.04c0-3.9,2.46-6.16,5.41-6.16c3.1,0,5.36,2.21,5.36,6.07v0.78H93.94z
			 M94.02,71.29h3.95c-0.2-1.32-0.94-2.05-1.96-2.05C95.05,69.23,94.25,70.08,94.02,71.29z"/>
		<path class="st0" d="M110.34,70.65c-0.39-0.64-1.03-1-1.73-1c-0.62,0-1.1,0.32-1.48,0.78v8.37h-3.38V66.93h3.33l-0.05,0.89
			c0.41-0.5,1.28-1.05,2.3-1.05c1.5,0,2.51,0.66,3.35,2.01L110.34,70.65z"/>
	</g>
	<g>
		<g>
			<path class="st0" d="M73.43,30.09c0-9.33-5.53-15.69-15.07-15.69c-4.56,0-8.3,1.94-10.86,5.05c-2.49-3.18-6.22-5.05-10.65-5.05
				c-3.87,0-6.98,1.66-9.19,4.36v-3.46h-8.78V50.9h9.19V30.09c0-4.01,2.83-7.05,6.85-7.05c6.01,0,6.64,4.98,6.64,7.05V50.9h9.19
				V30.09c0-4.01,2.83-7.05,6.91-7.05c5.95,0,6.64,4.98,6.64,7.05V50.9h9.13V30.09z"/>
			<path class="st0" d="M111.87,19.88c-3.37-3.38-8.03-5.48-13.18-5.48c-10.31,0-18.67,8.36-18.67,18.67
				c0,10.31,8.36,18.67,18.67,18.67c5.98,0,11.28-2.81,14.7-7.18l-6.96-5.44c-1.73,2.62-4.54,4.34-7.74,4.34
				c-5.29,0-9.59-4.65-9.59-10.39c0-5.74,4.29-10.39,9.59-10.39c2.79,0,5.28,1.31,7.02,3.38L111.87,19.88z"/>
		</g>
		<rect x="0.82" y="15.3" class="st0" width="9.13" height="35.61"/>
		<g>
			<path class="st0" d="M5.38,10.75c2.97,0,5.37-2.41,5.37-5.37C10.75,2.41,8.35,0,5.38,0S0,2.41,0,5.37
				C0,8.34,2.41,10.75,5.38,10.75"/>
		</g>
	</g>
</g>
</svg>
